<?xml version="1.0" standalone="no"?>
<!DOCTYPE svg PUBLIC "-//W3C//DTD SVG 1.1//EN" "http://www.w3.org/Graphics/SVG/1.1/DTD/svg11.dtd" >
<!--
2013-9-30: Created.
-->
<svg>
<metadata>
Created by iconfont
</metadata>
<defs>

<font id="iconfont" horiz-adv-x="1024" >
  <font-face
    font-family="iconfont"
    font-weight="500"
    font-stretch="normal"
    units-per-em="1024"
    ascent="896"
    descent="-128"
  />
    <missing-glyph />
    
    <glyph glyph-name="xiangshang1" unicode="&#58882;" d="M854.016 156.672l-313.344 309.248-313.344-309.248q-14.336-14.336-32.768-21.504t-37.376-7.168-36.864 7.168-32.256 21.504q-29.696 28.672-29.696 68.608t29.696 68.608l376.832 373.76q14.336 14.336 34.304 22.528t40.448 9.216 39.424-5.12 31.232-20.48l382.976-379.904q28.672-28.672 28.672-68.608t-28.672-68.608q-14.336-14.336-32.768-21.504t-37.376-7.168-36.864 7.168-32.256 21.504z"  horiz-adv-x="1024" />

    
    <glyph glyph-name="tupian" unicode="&#59017;" d="M957.824 18.144c0-41.216-33.728-74.304-74.048-74.304L140.224-56.16c-41.216 0-74.048 33.856-74.048 74.304L66.176 582.176c0 41.152 33.728 73.984 74.048 73.984l742.72 0c41.088 0 73.92-33.728 73.92-73.984l0-564.032L957.824 18.144zM140.224 597.792c-8.192 0-14.784-6.592-14.784-14.784l0-564.864c0-8.32 6.592-14.848 14.784-14.848l742.72 0c8.192 0 14.72 6.592 14.72 14.848L897.664 582.176c0 8.192-6.592 14.784-14.72 14.784L140.224 596.96 140.224 597.792zM274.304 359.328c-49.344 0-88.832 39.424-88.832 88.768 0 49.408 39.424 89.728 88.832 89.728 49.344 0 88.896-39.552 88.896-88.896S323.648 359.328 274.304 359.328L274.304 359.328zM838.592 62.432 185.472 62.432l0 89.536 148.864 148.8 74.048-73.92 237.568 236.8 193.408-193.216 0-208.192-0.896 0L838.464 62.432z"  horiz-adv-x="1024" />

    
    <glyph glyph-name="bianji" unicode="&#58883;" d="M34.155 665.06H9.18V41.842c0-69.612 56.069-126.132 124.903-126.132h818.832V424.9c0 13.953-11.182 25.264-24.975 25.264-13.794 0-24.976-11.311-24.976-25.264v-483.926l24.976 25.264H134.082c-41.285 0-74.951 33.937-74.951 75.605V639.797l-24.976-25.264h564.783c13.794 0 24.976 11.311 24.976 25.264 0 13.952-11.182 25.263-24.976 25.263H34.155z m402.861-362.564l-5.14-6.6-0.207-8.401-3.684-149.205-0.907-36.736 34.234 12.3 143.693 51.627 6.976 2.506 4.499 5.946 386.702 511.103 15.348 20.286-20.224 15.299-128.814 97.446-19.507 14.756-15.072-19.355-397.897-510.972z m402.56 475.109l128.814-97.447-4.876 35.585L576.812 204.64l11.474 8.453-143.693-51.627 33.328-24.437 3.683 149.204-5.347-15.001 397.897 510.972-34.579-4.599z m51.642-192.11l29.257 40.952-112.166 81.989-29.257-40.953 112.166-81.989z"  horiz-adv-x="1024" />

    
    <glyph glyph-name="zhusheqi" unicode="&#58906;" d="M217.215884 208.029734s44.750174-0.054854 107.690049-0.043884c62.972787 0 131.606543 23.828727 131.606542 23.828727L301.077205 76.379308l-103.235875 103.235875 19.363583 28.40358zM750.202634 594.335968l86.340738 86.340737-34.415615 34.415616-86.340738-86.340738 34.415615-34.415615z m-86.099378 51.563083L802.259407 784.055203l103.246847-103.246847L767.339131 542.641234l-103.235875 103.235875zM578.069702 731.932605l258.111631-258.111632-34.536295-34.536295-258.111631 258.111632 34.536295 34.536295ZM564.619417 710.846595c-9.522714-9.522714-8.71087-25.825425 1.711455-36.247751l229.729994-229.729994c10.312617-10.312617 26.779891-11.157374 36.23678-1.700484 9.522714 9.522714 8.71087 25.825425-1.711456 36.24775L600.867168 709.135139c-10.312617 10.312617-26.790862 11.168344-36.247751 1.711456z m-38.233478 38.233478c28.612026 28.612026 77.673751 25.935134 109.017524-5.408639l229.729993-229.729993c31.596102-31.596102 33.943868-80.460352 5.397668-109.006553-28.612026-28.612026-77.673751-25.935134-109.017524 5.408638L531.794577 640.062549c-31.596102 31.596102-33.954839 80.471323-5.408638 109.017524zM785.111939 835.738966c-9.500772-9.500772-9.522714-25.013581 0-34.536295l137.541783-137.541783c9.566598-9.566598 24.991639-9.544656 34.536295 0 9.489802 9.489802 9.522714 25.013581 0 34.536295L819.648234 835.738966c-9.566598 9.566598-24.991639 9.544656-34.536295 0z m-34.415616 34.415615A73.138424 73.138424 0 0 0 854.184529 870.275261l137.541783-137.541783c28.546201-28.546201 28.41455-74.931034-0.13165-103.477235a73.138424 73.138424 0 0 0-103.477235-0.13165L750.575644 766.666375c-28.546201 28.546201-28.41455 74.931034 0.13165 103.477235zM197.983951 179.757805c-0.109709-0.109709 103.104225-103.367526 103.104225-103.367527 0.043883-0.043883 397.189336 397.189336 397.189336 397.189336l-103.235876 103.235876-397.057685-397.057685z m397.167394 466.020567l172.078078-172.078078-431.593981-431.593981a48.717576 48.717576 0 0 0-69.07259-0.263301l-103.257818 103.257818c-19.001545 19.001545-18.902807 49.928424 0.25233 69.083561l431.593981 431.593981zM163.151442 76.116007c0.032913 0.032913 34.481441-34.415616 34.481441-34.415616-0.032913 0.032913 34.503383 34.569208 34.503383 34.569208l-34.415616 34.415615-34.569208-34.569207z m34.700858 103.532089l103.246847-103.246847-69.116474-69.116473a48.764121 48.764121 0 0 0-68.886085-0.12068l-34.481441 34.481441a48.764121 48.764121 0 0 0 0.12068 68.886085l69.116473 69.116474zM163.151442 76.116007c0.032913 0.032913 34.481441-34.415616 34.481441-34.415616-0.032913 0.032913 34.503383 34.569208 34.503383 34.569208l-34.415616 34.415615-34.569208-34.569207z m34.700858 103.532089l103.246847-103.246847-69.116474-69.116473a48.764121 48.764121 0 0 0-68.886085-0.12068l-34.481441 34.481441a48.764121 48.764121 0 0 0 0.12068 68.886085l69.116473 69.116474zM128.64806 41.612624l-120.888004-120.888004c-9.544656-9.544656-9.566598-24.969697-0.054854-34.48144 9.500772-9.500772 24.936785-9.46786 34.470469 0.065825L163.063675 7.197009c9.533685 9.533685 9.566598 24.969697 0.065825 34.47047-9.511743 9.511743-24.947756 9.478831-34.48144-0.054855zM482.875473 516.278236l51.617938-51.617938a12.194909 12.194909 0 0 1 17.235235 0.032912 12.194909 12.194909 0 0 1 0.043883 17.246206L500.154591 533.557354a12.194909 12.194909 0 0 1-17.257176-0.032912c-4.761357-4.761357-4.783299-12.484849-0.021942-17.246206zM413.802883 447.205646l51.617938-51.617938a12.194909 12.194909 0 0 1 17.235235 0.032912 12.194909 12.194909 0 0 1 0.032912 17.235235L431.07103 464.473793a12.194909 12.194909 0 0 1-17.246205-0.021942c-4.761357-4.761357-4.783299-12.484849-0.021942-17.246205zM344.730293 378.133055l51.617937-51.617938a12.194909 12.194909 0 0 1 17.235235 0.032913 12.194909 12.194909 0 0 1 0.032913 17.235235L361.99844 395.401203a12.194909 12.194909 0 0 1-17.246206-0.021942c-4.772328-4.772328-4.783299-12.484849-0.021941-17.246206zM275.657702 309.060465l51.617938-51.617938a12.194909 12.194909 0 0 1 17.235235 0.032913 12.194909 12.194909 0 0 1 0.032913 17.235235L292.92585 326.328613a12.194909 12.194909 0 0 1-17.246206-0.021942c-4.772328-4.772328-4.783299-12.484849-0.021942-17.246206z"  horiz-adv-x="1024" />

    
    <glyph glyph-name="wenben" unicode="&#59581;" d="M682.67 611.553c-31.416 0-56.893 25.467-56.893 56.894V896l284.446-284.447H682.67z m0-56.883h227.553v-568.893c0-62.833-50.944-113.777-113.776-113.777H227.553c-62.832 0-113.776 50.944-113.776 113.777V782.223C113.777 845.056 164.72 896 227.553 896h341.33v-227.553c0.01-62.843 50.944-113.777 113.787-113.777zM256 42.67h341.33v56.894H256v-56.894z m0 170.66h512v56.893H256v-56.893z m0 227.563V384h512v56.893H256z"  horiz-adv-x="1024" />

    
    <glyph glyph-name="yisheng" unicode="&#58885;" d="M332.682 143.59c0-9.441-3.45-17.612-10.35-24.513-6.9-6.9-15.072-10.35-24.514-10.35s-17.613 3.45-24.513 10.35c-6.9 6.9-10.35 15.072-10.35 24.514s3.45 17.613 10.35 24.513c6.9 6.9 15.07 10.35 24.513 10.35 9.442 0 17.614-3.45 24.514-10.35 6.9-6.9 10.35-15.07 10.35-24.513zM890.5 110.363c0-43.943-13.255-78.444-39.766-103.502-26.511-25.058-61.738-37.587-105.68-37.587H268.946c-43.943 0-79.17 12.529-105.68 37.587-26.512 25.058-39.767 59.559-39.767 103.502 0 24.695 0.999 48.482 2.996 71.361 1.997 22.88 6.355 47.938 13.074 75.175 6.718 27.237 15.344 51.296 25.875 72.178 10.532 20.882 25.24 39.585 44.125 56.109 18.884 16.524 40.674 27.51 65.369 32.957-7.99-18.884-11.984-40.674-11.984-65.37V242.19c-21.064-7.264-37.951-19.974-50.662-38.132-12.71-18.159-19.066-38.314-19.066-60.467 0-29.053 10.169-53.748 30.506-74.085C244.07 49.169 268.765 39 297.818 39c29.053 0 53.748 10.169 74.085 30.506 20.338 20.337 30.506 45.032 30.506 74.085 0 22.153-6.446 42.308-19.338 60.467-12.893 18.158-29.689 30.868-50.39 38.132V352.773c0 22.516 4.54 39.403 13.62 50.66 47.937-37.768 101.503-56.652 160.699-56.652 59.196 0 112.762 18.884 160.7 56.653 9.079-11.258 13.618-28.145 13.618-50.661v-34.864c-38.495 0-71.361-13.618-98.599-40.856-27.237-27.237-40.855-60.103-40.855-98.598v-48.483c-11.622-10.531-17.432-23.424-17.432-38.677 0-14.526 5.084-26.874 15.253-37.042C549.853 44.084 562.2 39 576.727 39c14.527 0 26.874 5.084 37.043 15.253 10.168 10.168 15.253 22.516 15.253 37.042 0 15.253-5.81 28.146-17.432 38.677v48.483c0 18.884 6.9 35.226 20.7 49.027 13.8 13.8 30.143 20.7 49.027 20.7 18.885 0 35.227-6.9 49.027-20.7 13.8-13.8 20.7-30.143 20.7-49.027v-48.483c-11.62-10.531-17.431-23.424-17.431-38.677 0-14.526 5.084-26.874 15.252-37.042C759.035 44.084 771.383 39 785.91 39c14.527 0 26.874 5.084 37.043 15.253 10.168 10.168 15.253 22.516 15.253 37.042 0 15.253-5.811 28.146-17.432 38.677v48.483c0 24.695-6.265 47.846-18.794 69.454-12.53 21.609-29.507 38.587-50.934 50.934 0 3.632 0.091 11.349 0.273 23.152 0.181 11.803 0.181 20.518 0 26.147-0.182 5.63-0.636 13.165-1.362 22.607-0.726 9.443-1.997 17.977-3.813 25.603-1.816 7.627-4.177 14.89-7.082 21.79 24.695-5.447 46.485-16.433 65.37-32.957 18.884-16.524 33.592-35.227 44.124-56.109 10.531-20.882 19.157-44.941 25.875-72.178 6.719-27.237 11.077-52.296 13.074-75.175 1.997-22.88 2.996-46.666 2.996-71.361zM716.182 596.818c0-57.743-20.428-107.042-61.284-147.898-40.856-40.856-90.155-61.284-147.898-61.284-57.743 0-107.042 20.428-147.898 61.284-40.856 40.856-61.284 90.155-61.284 147.898 0 57.743 20.428 107.042 61.284 147.898C399.958 785.572 449.257 806 507 806c57.743 0 107.042-20.428 147.898-61.284 40.856-40.856 61.284-90.155 61.284-147.898z"  horiz-adv-x="1024" />

    
    <glyph glyph-name="chenggong" unicode="&#58968;" d="M512 832C264.966 832 64 631.027 64 384c0-247.028 200.966-448 448-448 247.028 0 448 200.973 448 448S759.02 832 512 832z m-40.671-679.027A1088651.4 1088651.4 0 0 1 232.68 379.147c23.9 16.159 41.926 28.344 61.832 41.829a458514.13 458514.13 0 0 1 137.363-109.29c94.178 123.663 220.702 209.141 341.936 303.333l17.502-23.34C647.609 469.568 552.91 312.881 471.329 152.973z"  horiz-adv-x="1024" />

    
    <glyph glyph-name="pingzi" unicode="&#59047;" d="M835.12832 203.95008c-119.00928 144.33792-167.64928 262.63552-174.77632 280.94976l-5.02784 130.59584c-7.168 117.10976 27.72992 175.79008 28.032 176.28672l1.13152 1.80736 0.67584 2.0224c4.22912 12.69248 3.38432 25.12384-2.45248 35.94752-10.9056 20.2496-35.33824 27.264-38.0928 27.99616L642.35008 860.16H373.21728l-2.92352-1.04448c-40.77056-14.56128-45.10208-37.95456-45.17888-46.848-1.664-22.6304 19.44064-69.0176 30.67904-91.88864L353.28 499.2c0-64.0768-120.94464-227.96288-167.48544-285.62944-82.72384-101.40672-80.93696-165.58592-80.8192-168.2688l0.0512-0.80384c9.216-103.7056 85.72928-133.05856 125.36832-134.0928h565.76c57.10336 0 86.94272 42.20928 95.65184 66.48832 61.61408 100.03968-46.70976 216.6784-56.6784 227.05664z m25.2928-209.65888l-1.26464-1.98144-0.71168-2.23744c-0.13824-0.44032-14.49984-43.83744-62.2848-43.83744l-565.28896-0.00512c-3.31264 0.08704-81.03936 3.25632-90.07616 100.71552 0.09728 4.64896 2.8416 58.24 72.832 144.03584C231.58784 213.23264 389.12 410.93632 389.12 498.9952l2.60608 229.61664-1.93536 3.87584c-16.1536 32.32768-29.69088 68.24448-28.96896 76.80512l0.29696 2.3808-0.03584 0.26624c0.86528 1.64352 4.60288 6.95296 18.47296 12.37504h257.66912c4.06528-1.5104 11.46368-5.17632 13.93664-9.76384 0.41472-0.77312 1.3312-2.46272 0.43008-6.12864-7.23456-12.928-39.2448-77.3888-32.05632-194.71872l5.22752-135.88992 0.94208-2.6112c1.92512-5.34528 48.67072-132.79744 182.24128-294.61504l1.00352-1.1264c1.024-1.03936 102.09792-105.92768 51.47136-185.16992zM364.8 314.88S245.76 138.24 208.64 80.64 220.16 5.12 220.16 5.12s497.92-5.12 554.24 0 43.52 44.8 43.52 44.8c2.56 34.56-165.12 264.96-165.12 264.96H364.8z"  horiz-adv-x="1024" />

    
    <glyph glyph-name="menu-zhangkai" unicode="&#58902;" d="M709.859375 384l-251.86019897460938-337.60546875 84.58593750000001-63.07031249999999 298.8984375 400.67578125-298.8984375 400.67578125-84.58593750000001-63.07031249999999zM248.328125-37.875v843.75h105.46875v-843.75h-105.46875z"  horiz-adv-x="1024" />

    
    <glyph glyph-name="login" unicode="&#58880;" d="M418.96448 27.893760000000043c0 24.21248-25.52832 20.95104-41.89696 20.95104H188.53888c-57.6 0-104.73472 47.1296-104.73472 104.73984v460.8512c0 57.60512 47.13472 104.73472 104.73472 104.73472h209.47456c29.4656 0 20.95104 44.50816 20.95104 62.83776 0 11.12576-9.81504 20.94592-20.95104 20.94592H188.53888c-104.08448 0-188.52864-84.44416-188.52864-188.52352v-460.85632c0-104.07936 84.44416-188.52864 188.52864-188.52864h209.47456c29.4656 0 20.95104 44.5184 20.95104 62.848z m607.48288 356.11136c0 11.12576-4.58752 21.60128-12.4416 29.46048l-356.11136 356.11136c-7.8592 7.85408-18.3296 12.43648-29.46048 12.43648-22.91712 0-41.90208-18.98496-41.90208-41.89696v-188.52864H293.28384c-22.91712 0-41.90208-18.98496-41.90208-41.89696v-251.38688c0-22.90688 18.98496-41.88672 41.90208-41.88672h293.25824v-188.53376c0-22.912 18.98496-41.89696 41.89696-41.89696 11.13088 0 21.61152 4.58752 29.46048 12.44672l356.11136 356.11136c7.84896 7.84896 12.43648 18.32448 12.43648 29.46048z"  horiz-adv-x="1026" />

    
    <glyph glyph-name="menu-zhangkai-copy" unicode="&#58884;" d="M326.50683593 384l236.11893655 316.50512695-79.29931641 59.12841798-280.21728518-375.63354493 280.21728518-375.63354493 79.29931641 59.12841798zM759.19238282 779.5078125l0-791.015625-98.87695313 0 0 791.015625 98.87695313 0z"  horiz-adv-x="1024" />

    
    <glyph glyph-name="yanjiu1" unicode="&#59045;" d="M388.266667 605.866667l36.693333-124.928a177.152 177.152 0 0 1 117.248-334.165334l36.352-124.928A307.2 307.2 0 0 0 388.266667 605.866667zM551.936 113.322667a307.2 307.2 0 0 0-372.053333 240.981333A307.2 307.2 0 0 1 578.56 21.845333zM604.7744 252.3136l57.6-214.971733-81.92-21.947734-57.617067 214.971734zM494.0288 680.157867l74.939733-261.341867-117.469866-33.672533-74.922667 261.341866zM376.541867 646.6048l53.316266 15.291733 74.922667-261.341866-53.2992-15.291734zM498.295467 327.031467l-18.909867 65.9456 61.696 17.681066 18.909867-65.9456zM319.7952 747.6224a12.970667 12.970667 0 0 0 8.9088 16.042667l143.872 41.250133a12.970667 12.970667 0 0 0 16.042667-8.874667A45.568 45.568 0 0 0 457.386667 739.669333l-81.220267-23.296a45.568 45.568 0 0 0-56.3712 31.249067zM376.132267 716.407467l81.2032 23.296 18.5344-64.648534-81.2032-23.278933zM763.733333-27.136H204.629333v22.698667a56.832 56.832 0 0 0 56.832 56.832h445.44a56.832 56.832 0 0 0 56.832-56.661334v-22.869333zM717.892267 243.626667l-243.319467-65.194667-14.711467 54.8864 243.319467 65.194667zM307.2 306.517333m-67.925333 0a67.925333 67.925333 0 1 1 135.850666 0 67.925333 67.925333 0 1 1-135.850666 0ZM642.048 742.058667l239.104 0 0-292.352-239.104 0 0 292.352ZM846.848 759.466667h-170.666667a51.2 51.2 0 0 1-51.2-51.2v-224.597334a51.2 51.2 0 0 1 51.2-51.2h170.666667a51.2 51.2 0 0 1 51.2 51.2V708.266667a51.2 51.2 0 0 1-51.2 51.2z m17.066667-275.456a17.066667 17.066667 0 0 0-17.066667-17.066667h-170.666667a17.066667 17.066667 0 0 0-17.066666 17.066667V708.266667a17.066667 17.066667 0 0 0 17.066666 17.066666h170.666667a17.066667 17.066667 0 0 0 17.066667-17.066666zM813.226667 678.229333h-58.709334a17.066667 17.066667 0 0 1 0-34.133333h58.709334a17.066667 17.066667 0 0 1 0 34.133333zM813.226667 612.864h-58.709334a17.066667 17.066667 0 0 1 0-34.133333h58.709334a17.066667 17.066667 0 0 1 0 34.133333zM813.226667 547.498667h-58.709334a17.066667 17.066667 0 1 1 0-34.133334h58.709334a17.066667 17.066667 0 0 1 0 34.133334zM697.856 673.28l-2.218667-2.56-1.536-2.901333-1.024-3.242667a23.210667 23.210667 0 0 1 0-3.413333 17.066667 17.066667 0 0 1 5.12-11.946667 17.066667 17.066667 0 0 1 11.946667-5.12 17.066667 17.066667 0 0 1 12.117333 5.12 17.066667 17.066667 0 0 1 0 24.064 17.066667 17.066667 0 0 1-24.405333 0zM721.92 607.914667a17.066667 17.066667 0 0 1-15.36 4.608 10.24 10.24 0 0 1-3.242667-1.024 9.557333 9.557333 0 0 1-2.901333-1.536l-2.56-2.048a17.066667 17.066667 0 0 1 0-24.234667 17.066667 17.066667 0 0 1 27.818667 18.602667 20.309333 20.309333 0 0 1-3.754667 5.632zM697.856 542.378667a17.066667 17.066667 0 0 1-5.12-11.946667 17.066667 17.066667 0 0 1 1.365333-6.656 14.848 14.848 0 0 1 3.754667-5.461333 17.066667 17.066667 0 0 1 24.064 0 17.066667 17.066667 0 0 1 3.754667 5.461333 17.066667 17.066667 0 0 1 1.194666 6.656 17.066667 17.066667 0 0 1-4.949333 11.946667 17.066667 17.066667 0 0 1-24.064 0zM825.685333-10.069333h-44.714666v5.632a74.24 74.24 0 0 1-74.069334 74.069333h-35.498666l-36.010667 134.314667 86.869333 23.210666A17.066667 17.066667 0 0 1 733.866667 247.466667l-14.677334 54.954666a17.066667 17.066667 0 0 1-20.992 11.946667l-242.858666-64.512a17.066667 17.066667 0 0 1-11.605334-20.821333l14.848-54.954667a17.066667 17.066667 0 0 1 20.821334-12.117333l41.472 11.093333 3.754666-13.482667a156.501333 156.501333 0 0 0-176.981333 72.362667A85.333333 85.333333 0 0 1 341.333333 384a160.085333 160.085333 0 0 0 72.362667 72.533333l22.528-78.336a17.066667 17.066667 0 0 1 21.162667-11.605333l11.434666 3.242667 14.165334-49.664a17.066667 17.066667 0 0 1 21.162666-11.605334l61.610667 17.066667a17.066667 17.066667 0 0 1 11.776 21.162667L563.2 397.653333l11.434667 3.242667a17.066667 17.066667 0 0 1 11.605333 21.162667l-75.605333 261.290666a17.066667 17.066667 0 0 1-20.992 11.776h-1.706667l-9.898667 34.133334a62.464 62.464 0 0 1 27.136 69.973333 29.866667 29.866667 0 0 1-37.034666 20.48L324.266667 778.581333a30.037333 30.037333 0 0 1-20.48-37.205333 62.634667 62.634667 0 0 1 60.245333-45.056l9.898667-34.133333h-1.877334a17.066667 17.066667 0 0 1-11.605333-22.186667l6.826667-24.064a324.266667 324.266667 0 0 1-95.744-546.133333h-9.898667A74.24 74.24 0 0 1 187.733333-4.437333v-5.632H143.018667a17.066667 17.066667 0 0 1 0-34.133334h682.666666a17.066667 17.066667 0 0 1 0 34.133334z m-189.610666 79.701333h-52.565334l-30.037333 112.298667 48.981333 13.141333z m-149.504 129.706667l-5.973334 22.016 210.432 56.32 5.973334-22.016zM358.4 306.517333a51.2 51.2 0 1 0-51.2 51.2 51.2 51.2 0 0 0 51.2-51.2z m152.405333 40.277334l-9.557333 33.109333 27.818667 8.362667 9.557333-33.28z m37.888 82.261333l-85.333333-24.234667-7.850667 27.477334 84.48 24.234666zM482.645333 657.066667l48.128-168.277334-85.333333-24.234666-48.128 168.277333z m-85.333333 45.738666l48.469333 13.824 9.045334-31.914666-48.298667-13.824z m-25.6 28.501334a28.672 28.672 0 0 0-34.133333 15.701333l135.338666 38.741333a28.330667 28.330667 0 0 0-20.309333-31.061333z m-177.493333-417.109334a290.133333 290.133333 0 0 0 182.442666 269.312l26.794667-93.013333a194.730667 194.730667 0 0 1-97.28-99.157333 85.333333 85.333333 0 0 1 1.024-170.666667h5.973333a194.730667 194.730667 0 0 1 170.666667-102.4 189.610667 189.610667 0 0 1 48.64 6.485333l15.189333-56.661333H328.362667a288.085333 288.085333 0 0 0-134.144 246.101333z m552.618666-324.266666H221.866667v5.632a39.936 39.936 0 0 0 39.936 39.936h445.098666a39.936 39.936 0 0 0 39.936-39.936zM284.501333 306.517333A22.698667 22.698667 0 1 1 307.2 329.216a22.528 22.528 0 0 1-22.698667-22.698667z"  horiz-adv-x="1024" />

    
    <glyph glyph-name="duanxin" unicode="&#58931;" d="M521.728 337.92c-2.56-1.024-7.168-1.536-10.24-1.536-3.072 0-6.656 0.512-9.216 1.536L5.12 536.064V-10.24c0-25.6 20.48-40.96 45.568-40.96h914.944c25.6 0 53.248 15.36 53.248 40.96V534.528L521.728 337.92zM513.024 384.512l505.856 199.68v48.128c0 25.6-27.648 53.76-53.248 53.76H50.688C25.6 686.08 5.12 657.92 5.12 632.32v-46.592l507.904-201.216z"  horiz-adv-x="1024" />

    
    <glyph glyph-name="yonghu" unicode="&#59325;" d="M845.3 122c0-37.9-10.8-70.3-32.5-97.4S764.9-16 734.4-16H289.6c-30.6 0-56.7 13.6-78.4 40.6-21.7 27.1-32.5 59.6-32.5 97.4 0 29.5 1.4 57.4 4.4 83.6 3 26.2 8.4 52.6 16.4 79.2 8 26.5 18.2 49.3 30.5 68.2s28.7 34.4 49 46.3c20.3 11.9 43.7 18 70.1 18 45.5-44.5 99.8-66.7 163-66.7s117.5 22.2 163 66.7c26.4 0 49.7-6 70.1-18 20.3-11.9 36.6-27.4 49-46.3 12.3-19 22.5-41.6 30.5-68.2 8-26.5 13.5-52.9 16.4-79.2 2.8-26.2 4.2-54.1 4.2-83.6zM653.4 725.4C692.5 686.3 712 639.2 712 584s-19.5-102.3-58.6-141.4S567.2 384 512 384s-102.3 19.5-141.4 58.6S312 528.8 312 584s19.5 102.3 58.6 141.4S456.8 784 512 784s102.3-19.5 141.4-58.6z"  horiz-adv-x="1024" />

    
    <glyph glyph-name="word" unicode="&#58900;" d="M159.232 834.56v-832h705.536V733.184L763.904 834.56zM763.904 834.56v-100.864h100.864zM159.744 834.56v-830.976h705.024V733.184L763.904 834.56zM763.904 834.56v-100.864h100.864zM742.912 500.224l-97.28-326.144h-60.416l-65.024 228.864c-2.56 9.728-4.608 20.48-5.12 31.232h-1.024c-0.512-8.192-3.072-18.432-6.656-30.72L437.248 174.08H378.368L280.576 500.224h60.416l65.024-242.176c2.048-7.168 3.584-17.408 4.608-29.696h2.56c1.024 10.752 2.56 20.992 5.632 30.72l70.144 241.152h53.248l68.608-242.176c2.048-7.168 3.584-16.896 4.608-30.208h2.56c0.512 8.704 2.048 18.432 5.12 30.208l63.488 242.176h56.32z"  horiz-adv-x="1024" />

    
    <glyph glyph-name="down" unicode="&#58881;" d="M566.068941 75.40879833999998L566.068941 75.40879833999998c-14.174837-14.052041-33.873482-22.269189-54.004985-22.269189l0 0c-20.262486 0-39.896662 8.216125-54.135968 22.269189l-369.966123 370.09506 0 0c-29.865191 29.858028-29.865191 78.347392 0 108.204397l0 0c29.913287 29.79356 78.218456 29.79356 108.075461 0L512.063957 237.86991334000004 827.836807 553.70825534l0 0c29.984918 29.797653 78.285994 29.797653 108.204397-0.127913l0 0c29.863145-29.730115 29.863145-78.219479 0-108.076484L566.068941 75.40879833999998 566.068941 75.40879833999998zM566.068941 75.40879833999998"  horiz-adv-x="1024" />

    
    <glyph glyph-name="ziyuan" unicode="&#58963;" d="M434.050612 829.753469a83.591837 83.591837 0 0 1-55.379592-102.19102L480.653061 384l-101.982041-343.562449a82.12898 82.12898 0 0 1 157.570613-46.811429l107.624489 361.743674a81.71102 81.71102 0 0 1 4.597551 20.897959v7.314286 7.314286a81.71102 81.71102 0 0 1-4.597551 20.897959L536.241633 774.373878a83.591837 83.591837 0 0 1-102.191021 55.379591z"  horiz-adv-x="1024" />

    
    <glyph glyph-name="ziyuan1" unicode="&#58964;" d="M589.949388-61.753469a83.591837 83.591837 0 0 1 55.379592 102.19102L543.346939 384l101.982041 343.562449a82.12898 82.12898 0 0 1-157.570613 46.811429l-107.624489-361.743674a81.71102 81.71102 0 0 1-4.597551-20.897959v-14.628572a81.71102 81.71102 0 0 1 4.597551-20.897959l107.624489-361.743673a83.591837 83.591837 0 0 1 102.191021-56.21551z"  horiz-adv-x="1024" />

    
    <glyph glyph-name="pdf" unicode="&#59013;" d="M291.4304 173.294933l-6.485333-6.2464a325.461333 325.461333 0 0 0-11.264-10.478933 327.68 327.68 0 0 1-83.524267-97.962667c-2.594133-4.642133-5.5296-9.079467-7.918933-13.824 22.869333 10.581333 57.480533 44.168533 109.192533 128.512zM475.4432 734.583467c-6.826667 0-6.109867-20.821333-6.178133-54.510934-0.034133-33.6896 4.164267-67.1744 12.561066-99.805866 12.970667 24.610133 19.114667 52.224 17.749334 79.940266-0.6144 31.470933-7.168 64.785067-18.807467 72.635734a9.352533 9.352533 0 0 1-5.3248 1.7408zM860.672 247.296c3.413333 2.218667 4.096 10.683733-6.997333 17.7152a53.8624 53.8624 0 0 1-15.36 6.280533c-3.208533 0.9216-6.5536 1.194667-9.8304 1.911467a192.068267 192.068267 0 0 1-52.155734 4.881067c-14.848 0-31.368533-0.648533-49.5616-2.013867l1.3312-0.6144c33.211733-17.408 69.290667-28.535467 106.564267-32.699733 8.874667-0.3072 17.749333 1.262933 26.0096 4.539733zM989.866667 896H34.133333a34.133333 34.133333 0 0 1-34.133333-34.133333v-955.733334a34.133333 34.133333 0 0 1 34.133333-34.133333h955.733334a34.133333 34.133333 0 0 1 34.133333 34.133333V861.866667a34.133333 34.133333 0 0 1-34.133333 34.133333z m-112.913067-675.669333a39.5264 39.5264 0 0 0-22.7328-15.906134c-7.543467-1.877333-15.325867-2.730667-23.04-2.56a456.192 456.192 0 0 0-195.822933 63.419734 1708.680533 1708.680533 0 0 1-268.629334-65.160534c-48.708267-86.7328-88.610133-141.994667-123.426133-169.745066a131.310933 131.310933 0 0 0-14.609067-10.205867c-12.731733-7.611733-24.7808-11.298133-36.386133-11.298133-1.024 0-2.013867 0.3072-3.072 0.375466a54.3744 54.3744 0 0 0-21.9136 5.7344l-14.5408 7.543467-3.925333 2.013867c-1.058133 0.785067-1.774933 1.809067-2.696534 2.696533a29.730133 29.730133 0 0 0-8.328533 30.1056c7.168 35.7376 50.312533 80.861867 115.438933 120.593067l4.334934 2.525866c5.9392 3.413333 15.223467 8.533333 23.1424 12.834134l14.336 7.816533 19.080533 10.308267a2393.634133 2393.634133 0 0 1 61.405867 115.438933l2.7648 5.563733c17.6128 35.328 37.0688 74.513067 54.203733 114.176 3.652267 8.430933 7.304533 16.827733 10.683733 25.258667l2.833067 7.0656 4.027733 10.103467c-22.766933 88.8832-36.727467 160.4608-31.914666 213.4016 0.887467 9.796267 2.184533 19.182933 4.437333 27.682133 1.3312 3.652267 3.413333 6.7584 5.5296 9.8304a43.6224 43.6224 0 0 0 39.492267 19.080533H467.968l6.8608-0.273066 4.8128-0.170667c3.549867-0.170667 6.8608-1.092267 10.1376-2.082133 13.653333-4.061867 24.746667-14.404267 28.945067-28.4672l1.262933-3.3792 0.785067-2.048c1.604267-4.266667 2.628267-8.704 3.106133-13.2096 0.989867-7.304533 1.160533-16.9984 0.887467-27.886934-1.501867-58.811733-18.397867-157.013333-18.397867-157.013333-1.160533-5.12-2.3552-10.171733-3.7888-15.906133a413.320533 413.320533 0 0 1 99.5328-157.866667c6.4512-5.7344 13.312-10.888533 20.206933-16.042667a300.032 300.032 0 0 1 34.952534-22.869333 797.354667 797.354667 0 0 0 118.920533 8.874667c37.956267-0.477867 66.184533-5.12 84.241067-13.789867 6.007467-2.8672 10.922667-6.212267 14.677333-10.001067 2.116267-2.048 3.754667-4.471467 5.358933-6.929066 2.491733-3.857067 4.573867-7.9872 5.563734-12.526934a85.640533 85.640533 0 0 0-9.079467-57.105066zM476.808533 429.397333a1159.441067 1159.441067 0 0 0-56.558933-126.1568c-11.0592-21.230933-21.879467-41.2672-32.256-60.279466 63.829333 24.3712 129.706667 43.1104 196.8128 56.0128a364.714667 364.714667 0 0 0-14.574933 11.946666 415.470933 415.470933 0 0 0-93.422934 118.4768zM880.4352 289.9968a37.614933 37.614933 0 0 1-5.358933 6.929067 52.224 52.224 0 0 1-14.677334 10.001066c-18.056533 8.635733-46.250667 13.277867-84.241066 13.7216-39.799467 0-79.530667-2.935467-118.8864-8.840533a300.032 300.032 0 0 0-34.952534 22.869333 305.7664 305.7664 0 0 0-20.206933 16.008534 413.354667 413.354667 0 0 0-99.566933 157.9008c1.4336 5.7344 2.6624 10.786133 3.7888 15.906133 0 0 16.896 98.2016 18.397866 157.013333a187.0848 187.0848 0 0 1-0.887466 27.886934 53.521067 53.521067 0 0 1-3.106134 13.2096l-0.785066 2.048-1.262934 3.3792a42.564267 42.564267 0 0 1-28.945066 28.4672 42.120533 42.120533 0 0 1-10.1376 2.082133l-4.8128 0.170667-6.826667 0.273066h-0.341333c-15.9744 1.3312-30.72-6.382933-39.492267-19.114666a44.714667 44.714667 0 0 1-5.5296-9.8304 168.7552 168.7552 0 0 1-4.471467-27.682134c-4.8128-52.9408 9.1136-124.5184 31.914667-213.4016l-4.027733-10.103466-2.798934-7.0656c-3.3792-8.430933-7.0656-16.861867-10.717866-25.258667-17.169067-39.662933-36.590933-78.848-54.203734-114.176l-2.7648-5.563733a2393.634133 2393.634133 0 0 0-61.405866-115.438934l-19.080534-10.308266-14.336-7.816534a1870.199467 1870.199467 0 0 1-27.477333-15.36c-65.1264-39.7312-108.270933-84.855467-115.438933-120.593066a29.730133 29.730133 0 0 1 8.328533-30.1056c0.9216-0.887467 1.6384-1.9456 2.696533-2.696534l3.925334-2.013866 14.5408-7.543467c6.792533-3.515733 14.301867-5.290667 21.9136-5.7344 1.024-0.068267 2.013867-0.375467 3.072-0.375467 11.605333 0 23.6544 3.6864 36.386133 11.298134 4.778667 2.8672 9.659733 6.2464 14.609067 10.205866 34.816 27.7504 74.752 83.012267 123.426133 169.745067a1707.758933 1707.758933 0 0 0 268.663467 65.160533 457.0112 457.0112 0 0 1 195.822933-63.419733c7.714133-0.170667 15.496533 0.682667 23.04 2.56 9.216 2.3552 17.3056 8.021333 22.7328 15.906133a86.391467 86.391467 0 0 1 9.045333 57.1392 38.126933 38.126933 0 0 1-5.563733 12.561067zM182.237867 44.7488c2.389333 4.778667 5.3248 9.216 7.918933 13.858133a328.123733 328.123733 0 0 0 83.524267 97.962667c2.116267 1.7408 6.519467 5.905067 11.264 10.4448l6.485333 6.2464c-51.712-84.343467-86.3232-117.930667-109.192533-128.512z m293.205333 689.834667h0.034133a9.216 9.216 0 0 0 5.290667-1.7408c11.605333-7.850667 18.158933-41.1648 18.807467-72.635734a154.965333 154.965333 0 0 0-17.749334-79.940266v-0.034134a398.813867 398.813867 0 0 0-12.561066 99.84c0.068267 33.6896-0.648533 54.510933 6.178133 54.510934z m-87.4496-491.6224c10.376533 19.012267 21.1968 39.048533 32.256 60.279466a1159.441067 1159.441067 0 0 1 56.558933 126.1568 415.470933 415.470933 0 0 1 93.422934-118.4768c4.539733-3.959467 9.5232-7.9872 14.574933-11.946666a1172.411733 1172.411733 0 0 1-196.8128-56.0128z m472.6784 4.369066a64.136533 64.136533 0 0 0-26.043733-4.608 301.124267 301.124267 0 0 0-106.530134 32.699734l-1.3312 0.6144c18.193067 1.365333 34.7136 2.013867 49.5616 2.013866a181.248 181.248 0 0 0 26.897067-0.682666c8.533333-0.7168 16.896-2.286933 25.258667-4.1984 3.2768-0.750933 6.587733-0.989867 9.8304-1.911467 6.656-1.7408 11.639467-3.925333 15.36-6.280533 11.093333-6.997333 10.410667-15.428267 6.997333-17.646934z"  horiz-adv-x="1024" />

    
    <glyph glyph-name="xiangshang" unicode="&#58887;" d="M169.984 611.328l313.344-309.24799999 313.344 309.24799999q14.336 14.336 32.768 21.50400001t37.376 7.16799999 36.864-7.168 32.256-21.50400001q29.69599999-28.672 29.696-68.60799999t-29.696-68.60799999l-376.832-373.76000001q-14.336-14.336-34.304-22.528t-40.448-9.216-39.424 5.12-31.232 20.48l-382.976 379.90400001q-28.672 28.672-28.672 68.60799999t28.672 68.60799999q14.336 14.336 32.768 21.50400001t37.376 7.16799999 36.864-7.16799999 32.256-21.504z"  horiz-adv-x="1024" />

    
    <glyph glyph-name="tingzhenqi" unicode="&#59142;" d="M626.7-62.7h-77.6C409-62.7 295 51.4 295 191.7v70.7c0 23.4 19 42.4 42.3 42.4 23.4 0 42.3-19 42.3-42.4v-70.7c0-93.6 76-169.6 169.4-169.6h77.6c93.4 0 169.4 76.1 169.4 169.6V516.9c0 23.4 19 42.4 42.3 42.4s42.3-19 42.3-42.4v-325.1c0.2-140.4-113.8-254.5-253.9-254.5M726.3 618.7c0-62.4 50.6-112.9 112.9-112.9 62.4 0 112.9 50.5 112.9 112.9s-50.5 112.9-112.9 112.9c-62.3 0.1-112.9-50.5-112.9-112.9M790.8 618.7c0-26.7 21.7-48.4 48.4-48.4s48.4 21.7 48.4 48.4-21.7 48.4-48.4 48.4-48.4-21.6-48.4-48.4M394.4 208.4H290.5c-92.5 0-171 70.3-182.4 163.5L74.2 647.1c-6.7 54.1 25.5 105.9 76.5 123.2l29.9 10.1c22.3 7.5 46.3-4.7 53.7-27.2 7.4-22.6-4.6-47-26.9-54.5l-29.8-10.1c-12.7-4.3-20.8-17.3-19.1-30.8l33.9-275.2c6.2-50.2 48.4-88 98.2-88h103.9c49.8 0 92.1 37.9 98.2 88l33.9 275.2c1.7 13.5-6.4 26.5-19.1 30.8l-29.8 10.1c-22.2 7.5-34.3 31.9-26.9 54.5 7.4 22.5 31.4 34.8 53.7 27.2l29.9-10.1c51-17.3 83.2-69.1 76.5-123.2L577 371.9c-11.6-93.2-90.1-163.5-182.6-163.5M477.1 336c-18.2-25.8-48.4-42.5-82.1-42.5H289.9c-33.7 0-63.8 16.7-82.1 42.5h-94.9c24.4-74.7 95.3-127.6 177-127.6H395c81.7 0 152.6 52.9 177 127.6h-94.9zM207.9 655h15.8c13.1 0 23.7 9.8 23.7 21.9V808.5c0 12.1-10.6 21.9-23.7 21.9h-15.8c-13.1 0-23.7-9.8-23.7-21.9v-131.6c0-12.1 10.6-21.9 23.7-21.9M461.2 655H477c13.1 0 23.7 9.8 23.7 21.9V808.5c0 12.1-10.6 21.9-23.7 21.9h-15.8c-13.1 0-23.7-9.8-23.7-21.9v-131.6c0-12.1 10.6-21.9 23.7-21.9"  horiz-adv-x="1024" />

    
    <glyph glyph-name="wenhao" unicode="&#59068;" d="M475.529846 893.006769a472.772923 472.772923 0 0 0 0-945.467077 472.772923 472.772923 0 0 0 0 945.467077z m-3.072-803.524923c38.596923 0 69.789538 30.641231 69.789539 68.371692a69.159385 69.159385 0 0 1-69.789539 68.371693c-38.596923 0-69.710769-30.72-69.710769-68.371693 0-37.730462 31.271385-68.371692 69.710769-68.371692z m187.313231 386.756923a125.243077 125.243077 0 0 1 20.322461 68.529231c0 43.559385-18.432 81.683692-55.611076 114.530462-37.179077 32.768-87.04 49.230769-149.819077 49.230769-59.628308 0-107.913846-16.226462-144.620308-48.600616-36.706462-32.374154-58.131692-77.036308-59.313231-118.232615-1.181538-41.196308 96.728615-32.610462 100.273231-12.288 3.780923 21.504 19.849846 56.32 38.596923 72.073846 18.668308 15.753846 41.905231 23.630769 69.710769 23.630769 28.829538 0 51.830154-7.561846 68.765539-22.685538a70.892308 70.892308 0 0 0 25.52123-54.508308 68.450462 68.450462 0 0 0-14.414769-41.984c-6.222769-8.034462-25.284923-24.969846-57.107692-50.963692-31.901538-25.915077-53.169231-49.230769-63.803077-70.025846-10.633846-20.716308-15.990154-47.104-15.990154-79.320616l0.472616-26.072615h99.24923c-0.551385 30.089846 2.126769 50.963692 7.640616 62.621538 5.513846 11.736615 19.849846 27.175385 42.92923 46.237539 44.504615 37.100308 73.570462 66.323692 87.197539 87.827692z"  horiz-adv-x="1024" />

    


  </font>
</defs>
</svg>
