<?xml version="1.0" standalone="no"?><!DOCTYPE svg PUBLIC "-//W3C//DTD SVG 1.1//EN" "http://www.w3.org/Graphics/SVG/1.1/DTD/svg11.dtd"><svg t="1549873195763" class="icon" style="" viewBox="0 0 1024 1024" version="1.1" xmlns="http://www.w3.org/2000/svg" p-id="21437" xmlns:xlink="http://www.w3.org/1999/xlink" width="200" height="200"><defs><style type="text/css"></style></defs><path d="M512 0a512 512 0 1 0 0 1024A512 512 0 0 0 512 0z m0 938.688A426.688 426.688 0 1 1 512 85.312a426.688 426.688 0 0 1 0 853.376z" fill="#0099ff" p-id="21438"></path><path d="M509.248 170.688a209.92 209.92 0 0 0-22.976 1.28c8.064-0.576 16.064-1.216 24.256-1.216l-1.28-0.064z" fill="#0099ff" p-id="21439"></path><path d="M278.592 403.84h60.8c0-97.664 74.56-172.352 169.792-172.352s169.792 74.56 169.792 172.352h60.8c0-116.864-102.784-232.256-229.312-233.088-8.192 0.064-16.256 0.64-24.256 1.216-116.352 12.864-207.616 121.792-207.616 231.872zM775.808 728.576V503.808a60.8 60.8 0 0 0-60.8-60.8H308.992a60.8 60.8 0 0 0-60.8 60.8v224.768A340.608 340.608 0 0 0 512 853.312a340.672 340.672 0 0 0 263.808-124.736z m-215.04 0.96a45.632 45.632 0 0 1-45.632 45.632h-6.464a45.632 45.632 0 0 1-45.632-45.632V605.824c0-25.216 20.416-45.632 45.632-45.632h6.464c25.216 0 45.632 20.416 45.632 45.632v123.712z" fill="#0099ff" p-id="21440"></path></svg>