<?xml version="1.0" standalone="no"?><!DOCTYPE svg PUBLIC "-//W3C//DTD SVG 1.1//EN" "http://www.w3.org/Graphics/SVG/1.1/DTD/svg11.dtd"><svg t="1551085015865" class="icon" style="" viewBox="0 0 1024 1024" version="1.1" xmlns="http://www.w3.org/2000/svg" p-id="1256" xmlns:xlink="http://www.w3.org/1999/xlink" width="200" height="200"><defs><style type="text/css"></style></defs><path d="M291.4304 722.705067l-6.485333 6.2464a325.461333 325.461333 0 0 1-11.264 10.478933 327.68 327.68 0 0 0-83.524267 97.962667c-2.594133 4.642133-5.5296 9.079467-7.918933 13.824 22.869333-10.581333 57.480533-44.168533 109.192533-128.512zM475.4432 161.416533c-6.826667 0-6.109867 20.821333-6.178133 54.510934-0.034133 33.6896 4.164267 67.1744 12.561066 99.805866 12.970667-24.610133 19.114667-52.224 17.749334-79.940266-0.6144-31.470933-7.168-64.785067-18.807467-72.635734a9.352533 9.352533 0 0 0-5.3248-1.7408zM860.672 648.704c3.413333-2.218667 4.096-10.683733-6.997333-17.7152a53.8624 53.8624 0 0 0-15.36-6.280533c-3.208533-0.9216-6.5536-1.194667-9.8304-1.911467a192.068267 192.068267 0 0 0-52.155734-4.881067c-14.848 0-31.368533 0.648533-49.5616 2.013867l1.3312 0.6144c33.211733 17.408 69.290667 28.535467 106.564267 32.699733 8.874667 0.3072 17.749333-1.262933 26.0096-4.539733z" fill="#DE5657" p-id="1257"></path><path d="M989.866667 0H34.133333a34.133333 34.133333 0 0 0-34.133333 34.133333v955.733334a34.133333 34.133333 0 0 0 34.133333 34.133333h955.733334a34.133333 34.133333 0 0 0 34.133333-34.133333V34.133333a34.133333 34.133333 0 0 0-34.133333-34.133333z m-112.913067 675.669333a39.5264 39.5264 0 0 1-22.7328 15.906134c-7.543467 1.877333-15.325867 2.730667-23.04 2.56a456.192 456.192 0 0 1-195.822933-63.419734 1708.680533 1708.680533 0 0 0-268.629334 65.160534c-48.708267 86.7328-88.610133 141.994667-123.426133 169.745066a131.310933 131.310933 0 0 1-14.609067 10.205867c-12.731733 7.611733-24.7808 11.298133-36.386133 11.298133-1.024 0-2.013867-0.3072-3.072-0.375466a54.3744 54.3744 0 0 1-21.9136-5.7344l-14.5408-7.543467-3.925333-2.013867c-1.058133-0.785067-1.774933-1.809067-2.696534-2.696533a29.730133 29.730133 0 0 1-8.328533-30.1056c7.168-35.7376 50.312533-80.861867 115.438933-120.593067l4.334934-2.525866c5.9392-3.413333 15.223467-8.533333 23.1424-12.834134l14.336-7.816533 19.080533-10.308267a2393.634133 2393.634133 0 0 0 61.405867-115.438933l2.7648-5.563733c17.6128-35.328 37.0688-74.513067 54.203733-114.176 3.652267-8.430933 7.304533-16.827733 10.683733-25.258667l2.833067-7.0656 4.027733-10.103467c-22.766933-88.8832-36.727467-160.4608-31.914666-213.4016 0.887467-9.796267 2.184533-19.182933 4.437333-27.682133 1.3312-3.652267 3.413333-6.7584 5.5296-9.8304a43.6224 43.6224 0 0 1 39.492267-19.080533H467.968l6.8608 0.273066 4.8128 0.170667c3.549867 0.170667 6.8608 1.092267 10.1376 2.082133 13.653333 4.061867 24.746667 14.404267 28.945067 28.4672l1.262933 3.3792 0.785067 2.048c1.604267 4.266667 2.628267 8.704 3.106133 13.2096 0.989867 7.304533 1.160533 16.9984 0.887467 27.886934-1.501867 58.811733-18.397867 157.013333-18.397867 157.013333-1.160533 5.12-2.3552 10.171733-3.7888 15.906133a413.320533 413.320533 0 0 0 99.5328 157.866667c6.4512 5.7344 13.312 10.888533 20.206933 16.042667a300.032 300.032 0 0 0 34.952534 22.869333 797.354667 797.354667 0 0 1 118.920533-8.874667c37.956267 0.477867 66.184533 5.12 84.241067 13.789867 6.007467 2.8672 10.922667 6.212267 14.677333 10.001067 2.116267 2.048 3.754667 4.471467 5.358933 6.929066 2.491733 3.857067 4.573867 7.9872 5.563734 12.526934a85.640533 85.640533 0 0 1-9.079467 57.105066z" fill="#DE5657" p-id="1258"></path><path d="M476.808533 466.602667a1159.441067 1159.441067 0 0 1-56.558933 126.1568c-11.0592 21.230933-21.879467 41.2672-32.256 60.279466 63.829333-24.3712 129.706667-43.1104 196.8128-56.0128a364.714667 364.714667 0 0 1-14.574933-11.946666 415.470933 415.470933 0 0 1-93.422934-118.4768z" fill="#DE5657" p-id="1259"></path><path d="M880.4352 606.0032a37.614933 37.614933 0 0 0-5.358933-6.929067 52.224 52.224 0 0 0-14.677334-10.001066c-18.056533-8.635733-46.250667-13.277867-84.241066-13.7216-39.799467 0-79.530667 2.935467-118.8864 8.840533a300.032 300.032 0 0 1-34.952534-22.869333 305.7664 305.7664 0 0 1-20.206933-16.008534 413.354667 413.354667 0 0 1-99.566933-157.9008c1.4336-5.7344 2.6624-10.786133 3.7888-15.906133 0 0 16.896-98.2016 18.397866-157.013333a187.0848 187.0848 0 0 0-0.887466-27.886934 53.521067 53.521067 0 0 0-3.106134-13.2096l-0.785066-2.048-1.262934-3.3792a42.564267 42.564267 0 0 0-28.945066-28.4672 42.120533 42.120533 0 0 0-10.1376-2.082133l-4.8128-0.170667-6.826667-0.273066h-0.341333c-15.9744-1.3312-30.72 6.382933-39.492267 19.114666a44.714667 44.714667 0 0 0-5.5296 9.8304 168.7552 168.7552 0 0 0-4.471467 27.682134c-4.8128 52.9408 9.1136 124.5184 31.914667 213.4016l-4.027733 10.103466-2.798934 7.0656c-3.3792 8.430933-7.0656 16.861867-10.717866 25.258667-17.169067 39.662933-36.590933 78.848-54.203734 114.176l-2.7648 5.563733a2393.634133 2393.634133 0 0 1-61.405866 115.438934l-19.080534 10.308266-14.336 7.816534a1870.199467 1870.199467 0 0 0-27.477333 15.36c-65.1264 39.7312-108.270933 84.855467-115.438933 120.593066a29.730133 29.730133 0 0 0 8.328533 30.1056c0.9216 0.887467 1.6384 1.9456 2.696533 2.696534l3.925334 2.013866 14.5408 7.543467c6.792533 3.515733 14.301867 5.290667 21.9136 5.7344 1.024 0.068267 2.013867 0.375467 3.072 0.375467 11.605333 0 23.6544-3.6864 36.386133-11.298134 4.778667-2.8672 9.659733-6.2464 14.609067-10.205866 34.816-27.7504 74.752-83.012267 123.426133-169.745067a1707.758933 1707.758933 0 0 1 268.663467-65.160533 457.0112 457.0112 0 0 0 195.822933 63.419733c7.714133 0.170667 15.496533-0.682667 23.04-2.56 9.216-2.3552 17.3056-8.021333 22.7328-15.906133a86.391467 86.391467 0 0 0 9.045333-57.1392 38.126933 38.126933 0 0 0-5.563733-12.561067zM182.237867 851.2512c2.389333-4.778667 5.3248-9.216 7.918933-13.858133a328.123733 328.123733 0 0 1 83.524267-97.962667c2.116267-1.7408 6.519467-5.905067 11.264-10.4448l6.485333-6.2464c-51.712 84.343467-86.3232 117.930667-109.192533 128.512z m293.205333-689.834667h0.034133a9.216 9.216 0 0 1 5.290667 1.7408c11.605333 7.850667 18.158933 41.1648 18.807467 72.635734a154.965333 154.965333 0 0 1-17.749334 79.940266v0.034134a398.813867 398.813867 0 0 1-12.561066-99.84c0.068267-33.6896-0.648533-54.510933 6.178133-54.510934z m-87.4496 491.6224c10.376533-19.012267 21.1968-39.048533 32.256-60.279466a1159.441067 1159.441067 0 0 0 56.558933-126.1568 415.470933 415.470933 0 0 0 93.422934 118.4768c4.539733 3.959467 9.5232 7.9872 14.574933 11.946666a1172.411733 1172.411733 0 0 0-196.8128 56.0128z m472.6784-4.369066a64.136533 64.136533 0 0 1-26.043733 4.608 301.124267 301.124267 0 0 1-106.530134-32.699734l-1.3312-0.6144c18.193067-1.365333 34.7136-2.013867 49.5616-2.013866a181.248 181.248 0 0 1 26.897067 0.682666c8.533333 0.7168 16.896 2.286933 25.258667 4.1984 3.2768 0.750933 6.587733 0.989867 9.8304 1.911467 6.656 1.7408 11.639467 3.925333 15.36 6.280533 11.093333 6.997333 10.410667 15.428267 6.997333 17.646934z" fill="#FFFFFF" p-id="1260"></path></svg>