<?xml version="1.0" standalone="no"?><!DOCTYPE svg PUBLIC "-//W3C//DTD SVG 1.1//EN" "http://www.w3.org/Graphics/SVG/1.1/DTD/svg11.dtd"><svg t="1551085002889" class="icon" style="" viewBox="0 0 1024 1024" version="1.1" xmlns="http://www.w3.org/2000/svg" p-id="1140" xmlns:xlink="http://www.w3.org/1999/xlink" width="200" height="200"><defs><style type="text/css"></style></defs><path d="M159.232 61.44v832h705.536V162.816L763.904 61.44z" fill="#FD8F31" p-id="1141"></path><path d="M763.904 61.44v100.864h100.864z" fill="#FDB470" p-id="1142"></path><path d="M159.744 61.44v830.976h705.024V162.816L763.904 61.44z" fill="#3C99FC" p-id="1143"></path><path d="M763.904 61.44v100.864h100.864z" fill="#9BD3FD" p-id="1144"></path><path d="M742.912 395.776l-97.28 326.144h-60.416l-65.024-228.864c-2.56-9.728-4.608-20.48-5.12-31.232h-1.024c-0.512 8.192-3.072 18.432-6.656 30.72L437.248 721.92H378.368L280.576 395.776h60.416l65.024 242.176c2.048 7.168 3.584 17.408 4.608 29.696h2.56c1.024-10.752 2.56-20.992 5.632-30.72l70.144-241.152h53.248l68.608 242.176c2.048 7.168 3.584 16.896 4.608 30.208h2.56c0.512-8.704 2.048-18.432 5.12-30.208l63.488-242.176h56.32z" fill="#FFFFFF" p-id="1145"></path></svg>