<?xml version="1.0" standalone="no"?><!DOCTYPE svg PUBLIC "-//W3C//DTD SVG 1.1//EN" "http://www.w3.org/Graphics/SVG/1.1/DTD/svg11.dtd"><svg t="1549877681063" class="icon" style="" viewBox="0 0 1024 1024" version="1.1" xmlns="http://www.w3.org/2000/svg" p-id="24132" xmlns:xlink="http://www.w3.org/1999/xlink" width="200" height="200"><defs><style type="text/css"></style></defs><path d="M0 513.28C0 795.52 228.48 1024 510.72 1024c282.24 0 510.72-228.48 510.72-510.72S792.32 2.56 510.72 2.56C228.48 2.56 0 231.68 0 513.28z m0 0" fill="#0099ff" p-id="24133" data-spm-anchor-id="a313x.7781069.0.i13" class="selected"></path><path d="M508.16 529.92c35.2 19.2 89.6-127.36-3.2-119.04-92.8 8.32 3.2 119.04 3.2 119.04z m0 0" fill="#FCDFCB" p-id="24134"></path><path d="M485.76 874.24c0 8.96 4.48 17.28 12.16 21.76 7.68 4.48 17.28 4.48 24.96 0 7.68-4.48 12.16-12.8 12.16-21.76 0-14.08-10.88-24.96-24.96-24.96-13.44 0.64-24.32 11.52-24.32 24.96z m0 0" fill="#5A7A86" p-id="24135"></path><path d="M304 529.92C268.8 550.4 211.2 405.12 304 410.88c93.44 5.76 0 119.04 0 119.04z m407.68 0c35.2 20.48 92.8-124.8 0-119.04-92.8 5.76 0 119.04 0 119.04z m0 0" fill="#FCDFCB" p-id="24136"></path><path d="M733.44 454.4c0 122.88-99.2 255.36-222.08 255.36-122.88 0-222.08-132.48-222.08-255.36s99.2-222.08 222.08-222.08c122.88 0 222.08 99.2 222.08 222.08z m-17.92 396.8c0 53.76-91.52 97.92-204.16 97.92-112.64 0-204.16-43.52-204.16-97.92 0-53.76 91.52-71.04 204.16-71.04 112.64 0 204.16 16.64 204.16 71.04z m0 0" fill="#FCDFCB" p-id="24137"></path><path d="M798.08 935.68c-32.64 22.4-67.84 40.96-105.6 55.04-9.6 3.84-19.84 7.04-30.08 10.24-32.64 10.24-65.92 16.64-99.84 20.48-16 1.92-32 2.56-48 2.56h-7.04c-16 0-32-0.64-47.36-2.56-32.64-3.2-64.64-9.6-94.72-18.56-8.96-2.56-18.56-5.76-27.52-8.96l-15.36-5.76c-1.28-0.64-3.2-1.28-4.48-1.92-11.52-4.48-23.04-9.6-33.92-15.36-1.28-0.64-3.2-1.28-4.48-2.56-18.56-9.6-37.12-20.48-54.4-32 16-37.76 37.76-69.12 64-93.44 10.24-9.6 21.76-18.56 33.28-26.24 4.48-2.56 8.32-5.76 12.8-8.32 3.2-1.92 6.4-3.84 10.24-5.76 4.48-2.56 9.6-5.12 14.08-7.04 1.28-0.64 1.92-1.28 3.2-1.28 5.76-2.56 11.52-5.12 17.28-7.04l5.76-1.92c2.56-0.64 5.12-1.92 7.68-2.56 2.56-0.64 5.12-1.92 7.68-2.56v1.28c0 1.28 0.64 2.56 1.28 3.84 0 0.64 0.64 1.28 0.64 1.28 1.28 2.56 3.2 5.76 5.12 9.6 3.84 6.4 8.96 14.08 15.36 22.4 1.92 1.92 3.84 4.48 5.12 6.4 2.56 2.56 4.48 5.12 7.04 8.32 2.56 2.56 0 0 0 0 2.56 3.2 5.76 6.4 8.32 8.96l3.84 3.84c1.28 1.28 2.56 2.56 4.48 3.84 1.28 1.28 2.56 2.56 3.84 3.2 1.92 1.92 3.84 3.2 5.76 5.12 1.92 1.28 3.2 2.56 5.12 3.84 5.76 4.48 11.52 7.68 17.92 10.88 7.68 3.84 15.36 5.76 23.04 6.4h5.12c7.04-0.64 14.72-2.56 21.76-5.76 6.4-3.2 12.8-7.04 19.2-11.52 1.92-1.28 4.48-3.2 6.4-5.12 3.2-2.56 5.76-5.12 8.32-7.68l3.84-3.84 5.76-5.76c2.56-2.56 5.12-5.12 7.68-8.32 1.28-1.28 2.56-3.2 3.84-4.48 1.28-1.92 2.56-3.2 3.84-5.12 5.12-6.4 9.6-12.8 14.08-19.2 4.48-7.04 8.32-12.8 10.24-17.28 0-0.64 0.64-1.28 0.64-1.28 1.28-2.56 1.28-4.48 1.28-5.76 5.76 1.92 10.88 3.2 16.64 5.12 1.28 0.64 3.2 1.28 4.48 1.92 5.12 1.92 10.24 3.84 14.72 5.76 7.04 2.56 13.44 5.76 19.84 9.6 3.84 1.92 7.04 3.84 10.24 5.76 48.64 29.44 86.4 71.04 112 129.28z m0 0" fill="#FFFDF9" p-id="24138"></path><path d="M439.04 604.8h141.44v207.36H439.04z" fill="#FCDFCB" p-id="24139"></path><path d="M622.08 804.48v0.64l-10.88 39.04-3.84 13.44-0.64 3.2-1.28 5.12-8.32 31.36-12.16 44.8-21.76 78.72c-16 1.92-32 2.56-48 2.56h-7.04c-16 0-32-0.64-47.36-2.56-6.4-24.96-13.44-52.48-19.84-78.72-3.84-16-8.32-32-12.16-46.72-1.92-6.4-3.2-12.8-5.12-18.56v-1.28c-1.28-4.48-2.56-8.96-3.2-13.44-0.64-1.92-0.64-3.2-1.28-5.12-1.92-8.32-3.84-16-5.76-23.04-2.56-9.6-5.12-18.56-7.68-28.16-0.64-1.28-0.64-2.56-1.28-4.48-1.28-3.84-1.92-6.4-1.92-6.4l7.68 0.64 30.72 2.56 64.64 5.76H514.56l67.84-0.64h38.4l1.28 1.28z m0 0" fill="#57B7C6" p-id="24140"></path><path d="M506.88 1024c-16 0-32-0.64-47.36-2.56-32.64-3.2-64.64-9.6-94.72-18.56-8.96-2.56-18.56-5.76-27.52-8.96-3.84-3.84-8.32-7.04-12.8-10.88-1.28-1.28-2.56-1.92-3.84-3.2-0.64-0.64-1.28-1.28-1.92-1.28-0.64-0.64-1.28-0.64-1.92-1.28-8.32-6.4-16.64-12.16-25.6-17.92-1.28-0.64-2.56-1.92-3.84-2.56-1.28-1.28-3.2-1.92-4.48-2.56-0.64-0.64-1.28-0.64-1.92-1.28 0.64-0.64 1.92-1.28 2.56-1.92 0.64 0 0.64-0.64 1.28-0.64 2.56-1.92 5.12-3.84 7.04-5.76 2.56-1.92 5.12-3.84 7.68-6.4 14.72-11.52 27.52-22.4 39.68-33.92 3.84-3.2 7.68-7.04 11.52-10.88 4.48-4.48 8.96-8.96 13.44-12.8 3.84-3.84 7.04-7.68 10.24-10.88 1.28-1.28 2.56-2.56 5.76-2.56 1.92 0 3.84 0.64 5.76 1.92 14.08 5.76 26.88 15.36 38.4 24.96l1.92 1.92c16.64 15.36 32 32.64 44.16 51.2 17.28 23.68 28.8 49.28 36.48 76.8z m0 0" fill="#E4E9F5" p-id="24141"></path><path d="M476.8 947.2c14.08 28.8 26.88 55.04 32.64 76.8h-1.92c-16 0-32-0.64-47.36-2.56-32.64-3.2-64.64-9.6-94.72-18.56-9.6-9.6-19.84-19.2-30.08-27.52-1.28-1.28-2.56-1.92-3.84-3.2-1.28-1.28-2.56-1.92-3.84-3.2-1.28-1.28-3.2-2.56-4.48-3.2-8.32-6.4-16.64-12.8-25.6-17.92-1.28-0.64-2.56-1.92-3.84-2.56-2.56-1.28-4.48-3.2-7.04-4.48 7.04-5.12 14.08-10.24 20.48-15.36 10.24-8.32 19.84-16 28.8-23.68 5.12-4.48 10.24-8.96 15.36-14.08 3.84-3.84 7.68-7.68 11.52-10.88 5.12-5.12 9.6-9.6 14.08-14.72 0.64-0.64 3.2-3.84 5.76-6.4 1.28-1.28 2.56-1.92 3.2-1.92 1.92 0 5.12-0.64 7.04 0 1.92 0.64 3.84 0.64 6.4-0.64 1.28-1.28 3.2-2.56 4.48-4.48 2.56-3.84 5.76-8.32 8.32-12.8 2.56-5.12 5.12-9.6 7.68-12.8l1.92-1.92c0.64-0.64 1.28-1.28 1.92-1.28 1.28-0.64 3.2-0.64 4.48 0.64 0 1.92 0.64 3.84 1.28 6.4 0 1.28 0.64 3.2 0.64 4.48 1.92 9.6 4.48 18.56 7.68 28.16 0.64 1.28 0.64 2.56 1.28 3.84 0 0.64 0 0.64 0.64 1.28 0.64 1.28 0.64 2.56 1.28 3.84 10.24 26.88 23.68 53.76 35.84 78.72z m0 0" fill="#F2F5FB" p-id="24142"></path><path d="M455.68 842.24c-26.24 16.64-1.92 8.96-23.68 31.36-16-28.8-103.04-12.8-128-31.36 103.68-110.72 72.32-24.96 151.68 0z m0 0" fill="#E4E9F5" p-id="24143"></path><path d="M453.76 837.12c-26.24 16.64-1.92 8.96-23.68 31.36-16-28.8-103.04-12.8-128-31.36 103.04-110.72 71.68-24.96 151.68 0z m0 0" fill="#F2F5FB" p-id="24144"></path><path d="M737.92 958.08c-15.36 9.6-30.72 20.48-46.08 32.64-9.6 3.84-19.84 7.04-30.08 10.24-32.64 10.24-65.92 16.64-99.84 20.48-16 1.92-32 2.56-48 2.56 8.32-26.88 20.48-53.12 37.12-76.8 12.16-17.28 26.24-33.28 42.88-48l1.92-1.92c10.88-9.6 23.04-17.92 36.48-23.68l5.76-1.92c3.2 0 4.48 1.28 5.76 2.56 9.6 10.88 21.12 21.76 33.28 33.28 14.72 13.44 31.36 27.52 49.92 41.6 3.84 3.2 7.04 5.76 10.88 8.96z m0 0" fill="#E4E9F5" p-id="24145"></path><path d="M734.08 945.28c-2.56 1.28-4.48 3.2-7.04 4.48-22.4 14.08-44.16 31.36-64.64 51.2-32.64 10.24-65.92 16.64-99.84 20.48-16 1.92-32 2.56-48 2.56h-1.92c6.4-22.4 19.84-48.64 33.28-76.8 10.88-22.4 23.04-46.72 32-71.04 0.64-2.56 1.92-4.48 2.56-7.04l1.92-5.76c3.2-9.6 5.76-18.56 7.68-28.16 0.64-1.28 0.64-3.2 0.64-4.48 0-0.64 0-1.92 0.64-2.56 0-1.28 0.64-2.56 0.64-3.84 1.28-1.28 2.56-1.28 3.2-1.28 1.28 0 2.56 0.64 3.2 1.92l1.92 1.92c3.2 3.84 7.04 10.88 10.24 17.28 1.28 1.92 1.92 3.2 3.2 5.12 1.92 3.2 4.48 6.4 7.04 7.68 1.92 1.28 3.84 1.92 6.4 1.28 1.92-0.64 5.12 0 7.04 0 1.28 0 1.92 0.64 3.2 1.92 2.56 1.92 4.48 5.12 5.76 6.4 11.52 12.16 24.32 24.96 39.68 37.76 14.72 13.44 32 26.88 51.2 40.96z m0 0" fill="#F2F5FB" p-id="24146"></path><path d="M564.48 847.36c26.24 16.64 1.92 8.96 23.68 31.36 16-28.8 103.04-12.8 128-31.36-103.68-110.72-72.32-24.96-151.68 0z m0 0" fill="#E4E9F5" p-id="24147"></path><path d="M566.4 842.24c26.24 16.64 1.92 8.96 23.68 31.36 16-28.8 103.04-12.8 128-31.36-103.04-110.72-71.68-25.6-151.68 0z m0 0" fill="#F2F5FB" p-id="24148"></path><path d="M447.36 766.08l-80.64 26.88 58.88 88.32 87.68-75.52-65.92-39.68z m0 0" fill="#8CA1AC" p-id="24149"></path><path d="M440.32 756.48l-83.2 29.44 60.8 95.36 93.44-80-71.04-44.8z m0 0" fill="#1DAAB6" p-id="24150"></path><path d="M582.4 756.48l80.64 29.44-77.44 99.84-77.44-83.84 74.24-45.44z m0 0" fill="#1DAAB6" p-id="24151"></path><path d="M501.76 819.2c0 3.2 1.92 6.4 5.12 8.32 3.2 1.92 7.04 1.92 9.6 0 3.2-1.92 5.12-5.12 5.12-8.32s-1.92-6.4-5.12-8.32c-3.2-1.92-7.04-1.92-9.6 0-3.2 1.28-5.12 4.48-5.12 8.32z m0 70.4c0 5.12 4.48 9.6 9.6 9.6s9.6-4.48 9.6-9.6c0-3.2-1.92-6.4-5.12-8.32-3.2-1.92-7.04-1.92-9.6 0-2.56 1.92-4.48 5.12-4.48 8.32z m0 81.28c0 3.2 1.92 6.4 5.12 8.32 3.2 1.92 7.04 1.92 9.6 0 3.2-1.92 5.12-5.12 5.12-8.32s-1.92-6.4-5.12-8.32c-3.2-1.92-7.04-1.92-9.6 0-3.2 1.28-5.12 4.48-5.12 8.32z m0 0" fill="#FFFDF9" p-id="24152"></path><path d="M338.56 865.28l14.08 6.4c30.72-67.84 56.32-100.48 87.68-115.84v-16.64c-31.36 14.72-67.2 49.28-101.76 126.08z m242.56-129.92v17.28c30.08 13.44 53.12 45.44 85.12 124.16l13.44-5.76c-36.48-90.24-62.72-123.52-98.56-135.68z m0 0" fill="#5A7A86" p-id="24153"></path><path d="M283.52 970.88c-1.28-0.64-3.2-1.28-4.48-2.56 0.64-1.92 1.28-3.84 1.92-6.4 0.64-1.28 1.28-3.2 1.28-4.48 0.64-1.28 0.64-2.56 1.28-3.84 0.64-1.28 0.64-1.92 1.28-3.2v-1.28h0.64l3.84 1.28c-0.64 1.92-1.28 3.2-1.92 5.12 0 0.64-0.64 1.92-0.64 3.2-0.64 1.92-1.28 3.2-1.92 5.12 0 2.56-0.64 4.48-1.28 7.04z m48.64-1.28c-0.64 0.64-0.64 1.28-1.28 1.92-0.64 1.92-1.92 3.2-2.56 5.12-0.64 1.28-1.28 2.56-1.92 4.48 0 0.64-0.64 1.28-0.64 1.92-0.64 1.92-1.92 3.2-2.56 5.12-1.28-0.64-3.2-1.28-4.48-1.92 1.28-1.92 2.56-4.48 3.2-6.4v-0.64c0.64-1.28 1.92-3.2 2.56-4.48 1.28-1.92 1.92-4.48 3.2-5.76 0-0.64 0.64-1.28 0.64-1.28l3.84 1.92z m0 0" fill="#86999E" p-id="24154"></path><path d="M330.88 983.68l-14.08-5.76 33.92-80c3.2-7.68-0.64-16.64-8.32-19.84s-16.64 0.64-19.84 8.32L288.64 966.4l-13.44-6.4 33.92-80c6.4-15.36 24.32-22.4 39.68-16 15.36 6.4 22.4 24.32 16 39.68l-33.92 80z m0 0" fill="#5A7A86" p-id="24155"></path><path d="M549.12 218.24c9.6-34.56 44.16-55.04 78.72-52.48 34.56 2.56 67.2 24.96 91.52 53.12 7.68 8.96 14.72 18.56 19.84 28.8 17.28 35.2 14.72 155.52 0 188.8L549.12 218.24z m0 0" fill="#332115" p-id="24156"></path><path d="M550.4 151.04c19.84 15.36 37.76 43.52 28.16 68.48-23.04 33.92-67.2 32-103.68 42.24-28.8 7.68-55.04 24.32-83.2 32.64-33.28 9.6-70.4 6.4-100.48-13.44-30.08-19.2-52.48-56.32-53.76-96 14.08 7.68 28.16 15.36 44.16 15.36 21.12 0 39.04-15.36 57.6-26.88 19.2-12.8 39.04-22.4 58.88-32 15.36-7.68 31.36-15.36 47.36-18.56 36.48-8.32 74.88 3.84 104.96 28.16z m0 0" fill="#332115" p-id="24157"></path><path d="M745.6 394.88c-0.64-11.52-1.28-22.4-1.92-27.52-0.64-39.04-12.8-72.96-35.84-104.32-40.32-54.4-101.12-87.68-169.6-87.68h-54.4c-60.8 0-119.04 28.16-160 72.96-24.96 26.88-41.6 60.8-49.28 96.64-3.84 18.56-5.12 37.12-4.48 56.32 0.64 14.72-2.56 43.52 16.64 32.64 11.52-6.4 23.04-30.72 33.28-40.96 12.8-12.8 26.88-24.96 41.6-34.56 30.72-19.84 65.28-31.36 101.76-32.64 58.24-2.56 113.92 18.56 163.84 46.72 28.8 16 55.04 24.96 74.88 51.84 5.12 6.4 10.24 14.08 17.92 17.28 24.32 7.68 26.88-21.76 25.6-46.72z m0 0" fill="#332115" p-id="24158"></path><path d="M273.28 384.64c1.92-5.76 6.4-10.88 11.52-14.72 16-14.08 37.76-21.12 58.88-19.84-21.12 21.76-41.6 48-42.88 78.08-0.64 19.84 6.4 40.96-1.28 59.52-14.72-25.6-24.32-54.4-27.52-83.84-0.64-5.76-0.64-12.8 1.28-19.2z m468.48 0c-1.92-5.76-6.4-10.88-11.52-14.72-16-14.08-37.76-21.12-58.88-19.84 21.12 21.76 41.6 48 42.88 78.08 0.64 19.84-6.4 40.96 1.28 59.52 14.72-25.6 23.68-54.4 27.52-83.84 0.64-5.76 1.28-12.8-1.28-19.2z m0 0" fill="#332115" p-id="24159"></path><path d="M579.84 695.04v20.48c-40.32 22.4-91.52 18.56-142.08 0.64v-21.76c5.76 0 1.92 0 2.56 0.64 22.4 9.6 46.08 15.36 71.04 15.36 23.68-0.64 48-5.76 68.48-15.36z m0 0" fill="#EFC4A6" p-id="24160"></path></svg>