<?xml version="1.0" standalone="no"?><!DOCTYPE svg PUBLIC "-//W3C//DTD SVG 1.1//EN" "http://www.w3.org/Graphics/SVG/1.1/DTD/svg11.dtd"><svg t="1549868048289" class="icon" style="" viewBox="0 0 1024 1024" version="1.1" xmlns="http://www.w3.org/2000/svg" p-id="13758" xmlns:xlink="http://www.w3.org/1999/xlink" width="200" height="200"><defs><style type="text/css"></style></defs><path d="M217.215884 687.970266s44.750174 0.054854 107.690049 0.043884c62.972787 0 131.606543-23.828727 131.606542-23.828727L301.077205 819.620692l-103.235875-103.235875 19.363583-28.40358z" fill="#FDBDF1" p-id="13759"></path><path d="M750.202634 301.664032l86.340738-86.340737-34.415615-34.415616-86.340738 86.340738 34.415615 34.415615z m-86.099378-51.563083L802.259407 111.944797l103.246847 103.246847L767.339131 353.358766l-103.235875-103.235875z" fill="#7836A0" p-id="13760"></path><path d="M578.069702 164.067395l258.111631 258.111632-34.536295 34.536295-258.111631-258.111632 34.536295-34.536295Z" fill="#FFFFFF" p-id="13761"></path><path d="M564.619417 185.153405c-9.522714 9.522714-8.71087 25.825425 1.711455 36.247751l229.729994 229.729994c10.312617 10.312617 26.779891 11.157374 36.23678 1.700484 9.522714-9.522714 8.71087-25.825425-1.711456-36.24775L600.867168 186.864861c-10.312617-10.312617-26.790862-11.168344-36.247751-1.711456z m-38.233478-38.233478c28.612026-28.612026 77.673751-25.935134 109.017524 5.408639l229.729993 229.729993c31.596102 31.596102 33.943868 80.460352 5.397668 109.006553-28.612026 28.612026-77.673751 25.935134-109.017524-5.408638L531.794577 255.937451c-31.596102-31.596102-33.954839-80.471323-5.408638-109.017524zM785.111939 60.261034c-9.500772 9.500772-9.522714 25.013581 0 34.536295l137.541783 137.541783c9.566598 9.566598 24.991639 9.544656 34.536295 0 9.489802-9.489802 9.522714-25.013581 0-34.536295L819.648234 60.261034c-9.566598-9.566598-24.991639-9.544656-34.536295 0z m-34.415616-34.415615A73.138424 73.138424 0 0 1 854.184529 25.724739l137.541783 137.541783c28.546201 28.546201 28.41455 74.931034-0.13165 103.477235a73.138424 73.138424 0 0 1-103.477235 0.13165L750.575644 129.333625c-28.546201-28.546201-28.41455-74.931034 0.13165-103.477235z" fill="#7836A0" p-id="13762"></path><path d="M197.983951 716.242195c-0.109709 0.109709 103.104225 103.367526 103.104225 103.367527 0.043883 0.043883 397.189336-397.189336 397.189336-397.189336l-103.235876-103.235876-397.057685 397.057685z m397.167394-466.020567l172.078078 172.078078-431.593981 431.593981a48.717576 48.717576 0 0 1-69.07259 0.263301l-103.257818-103.257818c-19.001545-19.001545-18.902807-49.928424 0.25233-69.083561l431.593981-431.593981z" fill="#7836A0" p-id="13763"></path><path d="M163.151442 819.883993c0.032913-0.032913 34.481441 34.415616 34.481441 34.415616-0.032913-0.032913 34.503383-34.569208 34.503383-34.569208l-34.415616-34.415615-34.569208 34.569207z m34.700858-103.532089l103.246847 103.246847-69.116474 69.116473a48.764121 48.764121 0 0 1-68.886085 0.12068l-34.481441-34.481441a48.764121 48.764121 0 0 1 0.12068-68.886085l69.116473-69.116474z" fill="#7836A0" p-id="13764"></path><path d="M163.151442 819.883993c0.032913-0.032913 34.481441 34.415616 34.481441 34.415616-0.032913-0.032913 34.503383-34.569208 34.503383-34.569208l-34.415616-34.415615-34.569208 34.569207z m34.700858-103.532089l103.246847 103.246847-69.116474 69.116473a48.764121 48.764121 0 0 1-68.886085 0.12068l-34.481441-34.481441a48.764121 48.764121 0 0 1 0.12068-68.886085l69.116473-69.116474z" fill="#7836A0" p-id="13765"></path><path d="M128.64806 854.387376l-120.888004 120.888004c-9.544656 9.544656-9.566598 24.969697-0.054854 34.48144 9.500772 9.500772 24.936785 9.46786 34.470469-0.065825L163.063675 888.802991c9.533685-9.533685 9.566598-24.969697 0.065825-34.47047-9.511743-9.511743-24.947756-9.478831-34.48144 0.054855zM482.875473 379.721764l51.617938 51.617938a12.194909 12.194909 0 0 0 17.235235-0.032912 12.194909 12.194909 0 0 0 0.043883-17.246206L500.154591 362.442646a12.194909 12.194909 0 0 0-17.257176 0.032912c-4.761357 4.761357-4.783299 12.484849-0.021942 17.246206zM413.802883 448.794354l51.617938 51.617938a12.194909 12.194909 0 0 0 17.235235-0.032912 12.194909 12.194909 0 0 0 0.032912-17.235235L431.07103 431.526207a12.194909 12.194909 0 0 0-17.246205 0.021942c-4.761357 4.761357-4.783299 12.484849-0.021942 17.246205zM344.730293 517.866945l51.617937 51.617938a12.194909 12.194909 0 0 0 17.235235-0.032913 12.194909 12.194909 0 0 0 0.032913-17.235235L361.99844 500.598797a12.194909 12.194909 0 0 0-17.246206 0.021942c-4.772328 4.772328-4.783299 12.484849-0.021941 17.246206zM275.657702 586.939535l51.617938 51.617938a12.194909 12.194909 0 0 0 17.235235-0.032913 12.194909 12.194909 0 0 0 0.032913-17.235235L292.92585 569.671387a12.194909 12.194909 0 0 0-17.246206 0.021942c-4.772328 4.772328-4.783299 12.484849-0.021942 17.246206z" fill="#7836A0" p-id="13766"></path></svg>